<svg version="1.1" id="Layer_1" xmlns="http://www.w3.org/2000/svg" xmlns:xlink="http://www.w3.org/1999/xlink" x="0px" y="0px"
	 viewBox="0 0 512 512" enable-background="new 0 0 512 512" xml:space="preserve">
<g id="Layer_2_00000101071037324139279780000014491904029869533577_">
</g>
<g id="Layer_1_00000065767386067208259410000005211904962570778559_">
	<g>
		<path fill="#10B981" d="M273,415.8c0.6-19.5-11.2-23.6-28.1-22.3v44.7C261.9,439.5,273.6,435.3,273,415.8z M273,415.8
			c0.6-19.5-11.2-23.6-28.1-22.3v44.7C261.9,439.5,273.6,435.3,273,415.8z M456.1,135.8C446,76.4,396,62.4,342.8,58.9
			C324.2,30.7,292.3,12,256,12l0,0c-36.2,0-68.2,18.6-86.8,46.9C116,62.3,66,76.4,55.9,135.8c-9.1,85.3-9.1,199.9,0,285.2
			c15.9,93.2,129.8,74.8,200.1,79c70.2-4.1,184.3,14.2,200.1-79C465.2,335.7,465.2,221.2,456.1,135.8z M256,43.6
			c40.5,0,73.4,32.9,73.4,73.4s-32.9,73.4-73.4,73.4s-73.4-32.9-73.4-73.4S215.5,43.6,256,43.6z M204.1,427.9
			c-6.9,4.2-19.2,3.5-27.6,3.5c-0.2,8.4,2.8,24.9-10.2,24.9c-5.6,0-10.2-4.6-10.2-10.2v-60.5c0-5.6,4.6-10.2,10.2-10.2
			c9.8,0.5,29.7-1.9,38,3.6C222.7,388.2,222.7,418.9,204.1,427.9z M253.7,456.3c-8.7-0.8-29.4,4.1-29.3-10.2v-60.5
			c0-5.6,4.6-10.2,10.2-10.2c11.7,0.2,30.5-1.5,40.2,4.8C307.6,399.7,295.7,458.9,253.7,456.3z M347.3,393h-25.8v14
			c7.9,1.3,31.4-4.8,31.2,8.8c0.2,13.6-23.3,7.5-31.2,8.8c-1,8.8,4.7,31.9-10.2,31.7c-5.6,0-10.2-4.6-10.2-10.2v-60.5
			c0-5.6,4.6-10.2,10.2-10.2h36C358.7,375.2,358.7,393.1,347.3,393z M381.5,341.7h-251c-7.2,0-13-5.8-13-13s5.8-13,13-13h250.9
			c7.2,0,13,5.8,13,13C394.5,335.9,388.6,341.7,381.5,341.7z M381.5,289.4h-251c-7.2,0-13-5.8-13-13s5.8-13,13-13h250.9
			c7.2,0,13,5.8,13,13C394.5,283.6,388.6,289.4,381.5,289.4z M381.5,237.1h-251c-7.2,0-13-5.8-13-13s5.8-13,13-13h250.9
			c7.2,0,13,5.8,13,13C394.5,231.3,388.6,237.1,381.5,237.1z M244.9,393.5v44.7c17,1.3,28.7-2.9,28.1-22.4
			C273.6,396.3,261.8,392.2,244.9,393.5z M176.6,392.9v21.4c6.1-0.2,16.2,1.6,19.3-5C201.4,393.6,188.9,392,176.6,392.9z"/>
		<path fill="none" d="M394.5,224.1c0,7.2-5.8,13-13,13h-251c-7.2,0-13-5.8-13-13s5.8-13,13-13h250.9
			C388.6,211.1,394.5,216.9,394.5,224.1z"/>
		<g>
			<path fill="none" d="M204.4,379c-8.3-5.4-28.2-3.1-38-3.6c-5.6,0-10.2,4.6-10.2,10.2v60.5c0,5.6,4.6,10.2,10.2,10.2
				c13,0,10-16.4,10.2-24.9c8.4,0,20.7,0.7,27.6-3.5C222.7,418.9,222.7,388.2,204.4,379z M195.9,409.2c-3.1,6.6-13.2,4.8-19.3,5
				v-21.4C188.9,392,201.4,393.6,195.9,409.2z"/>
			<path fill="none" d="M274.9,380.2c-9.7-6.3-28.5-4.7-40.2-4.8c-5.6,0-10.2,4.6-10.2,10.2v60.5c-0.1,14.3,20.6,9.4,29.3,10.2
				C295.7,458.9,307.6,399.7,274.9,380.2z M244.9,438.2v-44.7c16.9-1.3,28.7,2.8,28.1,22.3C273.6,435.3,261.9,439.5,244.9,438.2z"/>
			<path fill="none" d="M321.5,393v14c7.9,1.3,31.4-4.8,31.2,8.8c0.2,13.6-23.3,7.5-31.2,8.8c-1,8.8,4.7,31.9-10.2,31.7
				c-5.6,0-10.2-4.6-10.2-10.2v-60.5c0-5.6,4.6-10.2,10.2-10.2h36c11.4-0.2,11.4,17.7,0,17.6L321.5,393L321.5,393z"/>
		</g>
		<g>
			<g>
				<path fill="none" d="M394.5,276.4c0,7.2-5.8,13-13,13h-251c-7.2,0-13-5.8-13-13s5.8-13,13-13h250.9
					C388.6,263.4,394.5,269.2,394.5,276.4z"/>
			</g>
			<g>
				<path fill="none" d="M394.5,328.7c0,7.2-5.8,13-13,13h-251c-7.2,0-13-5.8-13-13s5.8-13,13-13h250.9
					C388.6,315.7,394.5,321.5,394.5,328.7z"/>
			</g>
		</g>
		<circle fill="none" cx="256" cy="117" r="73.4"/>
		<path fill="#10B981" d="M262,144.2h36.9c1.2,0,2.3-0.4,3.3-1s2.1-1.3,2.7-2.3s1-2.2,1-3.3c0-1.2-0.4-2.3-1-3.3l-25-42.9
			c-0.6-1-1.3-1.7-2.3-2.3c-1-0.6-2.5-1-3.7-1s-2.3,0.4-3.3,1s-1.7,1.3-2.3,2.3l-6.3,11L249.3,81c-0.6-1-1.3-2.1-2.3-2.7
			s-2.1-0.7-3.3-0.7s-2.3,0.1-3.3,0.7s-2.1,1.6-2.7,2.7l-30.9,53.2c-0.6,1-0.7,2.2-0.7,3.3c0,1.2,0.1,2.3,0.7,3.3
			c0.6,1,1.6,1.7,2.7,2.3c1,0.6,2.1,1,3.3,1H236c9.2,0,15.9-4.1,20.6-12l11.3-19.6l6-10.3l18.3,31.3H268L262,144.2z M235.7,133.6
			h-16.3l24.3-41.9l12.3,21l-8.2,14.2C244.7,131.9,241.2,133.6,235.7,133.6z"/>
	</g>
</g>
</svg>
